TITLE ""
FILE "1Q_t_1188-1200.mp3" MP3
  TRACK 01 AUDIO
    TITLE "1Q_t_1188-1200_01"
    INDEX 01 00:00:00
  TRACK 02 AUDIO
    TITLE "1Q_t_1188-1200_02"
    INDEX 01 00:01:35
  TRACK 03 AUDIO
    TITLE "1Q_t_1188-1200_03"
    INDEX 01 00:01:45
  TRACK 04 AUDIO
    TITLE "1Q_t_1188-1200_04"
    INDEX 01 00:04:12
  TRACK 05 AUDIO
    TITLE "1Q_t_1188-1200_05"
    INDEX 01 00:04:18
  TRACK 06 AUDIO
    TITLE "1Q_t_1188-1200_06"
    INDEX 01 00:09:39
  TRACK 07 AUDIO
    TITLE "1Q_t_1188-1200_07"
    INDEX 01 00:10:07
  TRACK 08 AUDIO
    TITLE "1Q_t_1188-1200_08"
    INDEX 01 00:11:10
  TRACK 09 AUDIO
    TITLE "1Q_t_1188-1200_09"
    INDEX 01 00:11:18
  TRACK 10 AUDIO
    TITLE "1Q_t_1188-1200_10"
    INDEX 01 00:13:42
  TRACK 11 AUDIO
    TITLE "1Q_t_1188-1200_11"
    INDEX 01 00:13:50
  TRACK 12 AUDIO
    TITLE "1Q_t_1188-1200_12"
    INDEX 01 00:19:41
  TRACK 13 AUDIO
    TITLE "1Q_t_1188-1200_13"
    INDEX 01 00:20:11
  TRACK 14 AUDIO
    TITLE "1Q_t_1188-1200_14"
    INDEX 01 00:21:18
  TRACK 15 AUDIO
    TITLE "1Q_t_1188-1200_15"
    INDEX 01 00:21:26
  TRACK 16 AUDIO
    TITLE "1Q_t_1188-1200_16"
    INDEX 01 00:23:70
  TRACK 17 AUDIO
    TITLE "1Q_t_1188-1200_17"
    INDEX 01 00:24:01
  TRACK 18 AUDIO
    TITLE "1Q_t_1188-1200_18"
    INDEX 01 00:30:58
  TRACK 19 AUDIO
    TITLE "1Q_t_1188-1200_19"
    INDEX 01 00:31:32
  TRACK 20 AUDIO
    TITLE "1Q_t_1188-1200_20"
    INDEX 01 00:32:48
  TRACK 21 AUDIO
    TITLE "1Q_t_1188-1200_21"
    INDEX 01 00:32:55
  TRACK 22 AUDIO
    TITLE "1Q_t_1188-1200_22"
    INDEX 01 00:34:74
  TRACK 23 AUDIO
    TITLE "1Q_t_1188-1200_23"
    INDEX 01 00:35:07
  TRACK 24 AUDIO
    TITLE "1Q_t_1188-1200_24"
    INDEX 01 00:40:49
  TRACK 25 AUDIO
    TITLE "1Q_t_1188-1200_25"
    INDEX 01 00:41:21
  TRACK 26 AUDIO
    TITLE "1Q_t_1188-1200_26"
    INDEX 01 00:42:32
  TRACK 27 AUDIO
    TITLE "1Q_t_1188-1200_27"
    INDEX 01 00:42:40
  TRACK 28 AUDIO
    TITLE "1Q_t_1188-1200_28"
    INDEX 01 00:45:01
  TRACK 29 AUDIO
    TITLE "1Q_t_1188-1200_29"
    INDEX 01 00:45:09
  TRACK 30 AUDIO
    TITLE "1Q_t_1188-1200_30"
    INDEX 01 00:51:25
  TRACK 31 AUDIO
    TITLE "1Q_t_1188-1200_31"
    INDEX 01 00:51:70
  TRACK 32 AUDIO
    TITLE "1Q_t_1188-1200_32"
    INDEX 01 00:53:22
  TRACK 33 AUDIO
    TITLE "1Q_t_1188-1200_33"
    INDEX 01 00:53:32
  TRACK 34 AUDIO
    TITLE "1Q_t_1188-1200_34"
    INDEX 01 00:56:26
  TRACK 35 AUDIO
    TITLE "1Q_t_1188-1200_35"
    INDEX 01 00:56:34
  TRACK 36 AUDIO
    TITLE "1Q_t_1188-1200_36"
    INDEX 01 01:03:21
  TRACK 37 AUDIO
    TITLE "1Q_t_1188-1200_37"
    INDEX 01 01:03:66
  TRACK 38 AUDIO
    TITLE "1Q_t_1188-1200_38"
    INDEX 01 01:05:06
  TRACK 39 AUDIO
    TITLE "1Q_t_1188-1200_39"
    INDEX 01 01:05:14
  TRACK 40 AUDIO
    TITLE "1Q_t_1188-1200_40"
    INDEX 01 01:08:10
  TRACK 41 AUDIO
    TITLE "1Q_t_1188-1200_41"
    INDEX 01 01:08:16
  TRACK 42 AUDIO
    TITLE "1Q_t_1188-1200_42"
    INDEX 01 01:14:03
  TRACK 43 AUDIO
    TITLE "1Q_t_1188-1200_43"
    INDEX 01 01:14:48
  TRACK 44 AUDIO
    TITLE "1Q_t_1188-1200_44"
    INDEX 01 01:15:61
  TRACK 45 AUDIO
    TITLE "1Q_t_1188-1200_45"
    INDEX 01 01:15:69
  TRACK 46 AUDIO
    TITLE "1Q_t_1188-1200_46"
    INDEX 01 01:18:30
  TRACK 47 AUDIO
    TITLE "1Q_t_1188-1200_47"
    INDEX 01 01:18:36
  TRACK 48 AUDIO
    TITLE "1Q_t_1188-1200_48"
    INDEX 01 01:25:14
  TRACK 49 AUDIO
    TITLE "1Q_t_1188-1200_49"
    INDEX 01 01:25:59
  TRACK 50 AUDIO
    TITLE "1Q_t_1188-1200_50"
    INDEX 01 01:26:73
  TRACK 51 AUDIO
    TITLE "1Q_t_1188-1200_51"
    INDEX 01 01:27:04
  TRACK 52 AUDIO
    TITLE "1Q_t_1188-1200_52"
    INDEX 01 01:28:52
  TRACK 53 AUDIO
    TITLE "1Q_t_1188-1200_53"
    INDEX 01 01:28:58
  TRACK 54 AUDIO
    TITLE "1Q_t_1188-1200_54"
    INDEX 01 01:34:07
  TRACK 55 AUDIO
    TITLE "1Q_t_1188-1200_55"
    INDEX 01 01:34:51
  TRACK 56 AUDIO
    TITLE "1Q_t_1188-1200_56"
    INDEX 01 01:36:12
  TRACK 57 AUDIO
    TITLE "1Q_t_1188-1200_57"
    INDEX 01 01:36:20
  TRACK 58 AUDIO
    TITLE "1Q_t_1188-1200_58"
    INDEX 01 01:38:56
  TRACK 59 AUDIO
    TITLE "1Q_t_1188-1200_59"
    INDEX 01 01:38:62
  TRACK 60 AUDIO
    TITLE "1Q_t_1188-1200_60"
    INDEX 01 01:45:62
  TRACK 61 AUDIO
    TITLE "1Q_t_1188-1200_61"
    INDEX 01 01:46:34
  TRACK 62 AUDIO
    TITLE "1Q_t_1188-1200_62"
    INDEX 01 01:47:65
  TRACK 63 AUDIO
    TITLE "1Q_t_1188-1200_63"
    INDEX 01 01:47:75
  TRACK 64 AUDIO
    TITLE "1Q_t_1188-1200_64"
    INDEX 01 01:51:39
  TRACK 65 AUDIO
    TITLE "1Q_t_1188-1200_65"
    INDEX 01 01:51:45
  TRACK 66 AUDIO
    TITLE "1Q_t_1188-1200_66"
    INDEX 01 01:59:45
  TRACK 67 AUDIO
    TITLE "1Q_t_1188-1200_67"
    INDEX 01 02:00:13
  TRACK 68 AUDIO
    TITLE "1Q_t_1188-1200_68"
    INDEX 01 02:01:36
  TRACK 69 AUDIO
    TITLE "1Q_t_1188-1200_69"
    INDEX 01 02:01:45
  TRACK 70 AUDIO
    TITLE "1Q_t_1188-1200_70"
    INDEX 01 02:03:56
  TRACK 71 AUDIO
    TITLE "1Q_t_1188-1200_71"
    INDEX 01 02:03:62
  TRACK 72 AUDIO
    TITLE "1Q_t_1188-1200_72"
    INDEX 01 02:10:54
  TRACK 73 AUDIO
    TITLE "1Q_t_1188-1200_73"
    INDEX 01 02:11:24
  TRACK 74 AUDIO
    TITLE "1Q_t_1188-1200_74"
    INDEX 01 02:12:28
  TRACK 75 AUDIO
    TITLE "1Q_t_1188-1200_75"
    INDEX 01 02:12:71
  TRACK 76 AUDIO
    TITLE "1Q_t_1188-1200_76"
    INDEX 01 02:14:13
  TRACK 77 AUDIO
    TITLE "1Q_t_1188-1200_77"
    INDEX 01 02:14:21
  TRACK 78 AUDIO
    TITLE "1Q_t_1188-1200_78"
    INDEX 01 02:17:41
  TRACK 79 AUDIO
    TITLE "1Q_t_1188-1200_79"
    INDEX 01 02:17:46
  TRACK 80 AUDIO
    TITLE "1Q_t_1188-1200_80"
    INDEX 01 02:23:57
